<?xml version="1.0" standalone="no"?><!DOCTYPE svg PUBLIC "-//W3C//DTD SVG 1.1//EN" "http://www.w3.org/Graphics/SVG/1.1/DTD/svg11.dtd"><svg t="1551971018279" class="icon" style="" viewBox="0 0 1024 1024" version="1.1" xmlns="http://www.w3.org/2000/svg" p-id="1193" xmlns:xlink="http://www.w3.org/1999/xlink" width="200" height="200"><defs><style type="text/css"></style></defs><path d="M28.444444 312.888889c0-17.066667 5.688889-28.444444 17.066667-39.82222201 22.755556-22.755556 56.888889-17.066667 79.644445 5.68888901l329.955555 364.088888c11.377778 11.377778 22.755556 17.066667 34.133333 17.066667 11.377778 0 22.755556-5.688889 34.133334-17.066667L836.266667 273.066667c22.755556-22.755556 56.88888901-28.444444 79.644444-5.688889 22.755556 22.755556 28.444444 56.88888901 5.688889 79.64444401l-312.888889 364.08888899c-28.444444 34.133333-73.955556 56.888889-119.466667 56.888889s-85.333333-17.066667-119.466666-51.2l-329.955556-364.088889c-5.688889-11.377778-11.377778-28.444444-11.377778-39.822222z" p-id="1194"></path></svg>