<?xml version="1.0" standalone="no"?><!DOCTYPE svg PUBLIC "-//W3C//DTD SVG 1.1//EN" "http://www.w3.org/Graphics/SVG/1.1/DTD/svg11.dtd"><svg class="icon" width="200px" height="200.00px" viewBox="0 0 1024 1024" version="1.1" xmlns="http://www.w3.org/2000/svg"><path d="M512 512m-512 0a512 512 0 1 0 1024 0 512 512 0 1 0-1024 0Z" fill="#fca136" /><path d="M685.056 767.317333H344.746667a27.648 27.648 0 0 1-26.965334-19.114666 26.282667 26.282667 0 0 1 9.898667-31.402667 34.133333 34.133333 0 0 1 18.432-5.802667h332.8a27.648 27.648 0 0 1 6.144 54.954667zM809.984 413.354667a38.570667 38.570667 0 0 1-39.594667 30.72 47.445333 47.445333 0 0 0-2.048 6.485333q-31.402667 106.496-62.122666 212.992c-2.730667 9.216-6.144 11.605333-15.36 11.605333H333.482667c-9.898667 0-12.970667-2.389333-15.701334-11.605333l-50.176-172.714667c-4.778667-15.701333-9.216-31.402667-13.994666-47.104a37.205333 37.205333 0 0 1-34.133334-19.797333c-1.706667-3.413333-2.730667-7.168-4.437333-10.581333v-12.970667l2.048-5.461333a37.205333 37.205333 0 0 1 34.133333-25.6 38.229333 38.229333 0 0 1 34.133334 20.48 36.864 36.864 0 0 1-5.12 40.96 21.504 21.504 0 0 0-3.413334 4.096l82.261334 50.517333 31.402666 18.773333c5.802667 3.413333 10.581333 2.730667 13.653334-3.072l94.549333-172.714666a38.570667 38.570667 0 0 1-23.210667-34.133334 34.133333 34.133333 0 0 1 10.922667-28.330666 37.546667 37.546667 0 0 1 54.954667 3.072c15.701333 19.114667 9.898667 41.642667-15.018667 58.709333l24.576 44.714667 68.266667 124.586666c5.12 9.898667 8.533333 10.581333 18.090666 5.12l105.813334-64.853333 5.12-3.413333a37.205333 37.205333 0 1 1 60.416-38.229334s0 2.730667 1.706666 4.437334v12.629333z" fill="#ffffff" /></svg>